<?xml version="1.0" encoding="UTF-8" standalone="no"?>
<!DOCTYPE svg PUBLIC "-//W3C//DTD SVG 1.1//EN"
 "http://www.w3.org/Graphics/SVG/1.1/DTD/svg11.dtd">
<!-- Generated by graphviz version 2.36.0 (20140111.2315)
 -->
<!-- Title: G Pages: 1 -->
<svg width="128pt" height="132pt"
 viewBox="0.00 0.00 128.00 132.00" xmlns="http://www.w3.org/2000/svg" xmlns:xlink="http://www.w3.org/1999/xlink">
<g id="graph0" class="graph" transform="scale(1 1) rotate(0) translate(4 128)">
<title>G</title>
<polygon fill="white" stroke="none" points="-4,4 -4,-128 124,-128 124,4 -4,4"/>
<g id="clust1" class="cluster"><title>cluster_Global</title>
<path fill="none" stroke="gray" d="M20,-8C20,-8 100,-8 100,-8 106,-8 112,-14 112,-20 112,-20 112,-104 112,-104 112,-110 106,-116 100,-116 100,-116 20,-116 20,-116 14,-116 8,-110 8,-104 8,-104 8,-20 8,-20 8,-14 14,-8 20,-8"/>
<text text-anchor="middle" x="60" y="-103.2" font-family="Times,serif" font-size="11.00" fill="gray">Global</text>
</g>
<g id="clust2" class="cluster"><title>cluster_\AMWD</title>
<path fill="none" stroke="gray" d="M28,-16C28,-16 92,-16 92,-16 98,-16 104,-22 104,-28 104,-28 104,-76 104,-76 104,-82 98,-88 92,-88 92,-88 28,-88 28,-88 22,-88 16,-82 16,-76 16,-76 16,-28 16,-28 16,-22 22,-16 28,-16"/>
<text text-anchor="middle" x="60" y="-75.2" font-family="Times,serif" font-size="11.00" fill="gray">AMWD</text>
</g>
<!-- \\AMWD\\HiOrgApi -->
<g id="node1" class="node"><title>\\AMWD\\HiOrgApi</title>
<polygon fill="none" stroke="black" points="95.5,-60 24.5,-60 24.5,-24 95.5,-24 95.5,-60"/>
<text text-anchor="middle" x="60" y="-39.2" font-family="Courier,monospace" font-size="11.00">HiOrgApi</text>
</g>
</g>
</svg>
